<svg width="158" height="28" viewBox="0 0 158 28" fill="none" xmlns="http://www.w3.org/2000/svg">
<path d="M19.7231 -9.15527e-05L19.6912 0.0323732H0.227539V27.7897H7.38715V7.33694H16.8847L22.6155 13.1806L27.6432 8.06739L19.7231 -9.15527e-05Z" fill="white"/>
<path d="M22.6155 13.1806V20.4853H15.4559V27.7898H29.7751V13.1807L22.6155 13.1806Z" fill="white"/>
<path d="M156.928 19.1986C156.579 22.4973 153.307 24.6964 148.694 24.6964C143.518 24.6964 140.085 21.7732 140.085 17.4017C140.085 13.0035 143.572 10.0802 148.775 10.0802C153.414 10.0802 156.767 12.3062 157.142 15.6585H152.985C152.771 14.1835 151.108 13.1644 148.828 13.1644C146.066 13.1644 144.216 14.854 144.216 17.4017C144.216 19.9227 146.039 21.6123 148.775 21.6123C150.974 21.6123 152.583 20.6468 152.771 19.1986H156.928Z" fill="white"/>
<path d="M134.416 10.4018H138.385V24.3475H134.416V15.9264H134.362L126.343 24.3475H122.374V10.4018H126.343V18.8228H126.37L134.416 10.4018Z" fill="white"/>
<path d="M108.469 24.3475H104.5V10.4018H108.469V15.846H116.407V10.4018H120.377V24.3475H116.407V18.9033H108.469V24.3475Z" fill="white"/>
<path d="M93.9748 10.0802C99.419 10.0802 102.771 12.8694 102.771 17.4017C102.771 21.9073 99.419 24.6964 93.9748 24.6964C88.5306 24.6964 85.2051 21.9073 85.2051 17.4017C85.2051 12.8694 88.5306 10.0802 93.9748 10.0802ZM89.3352 17.4017C89.3352 19.9763 91.132 21.6123 93.9748 21.6123C96.8444 21.6123 98.6412 19.9763 98.6412 17.4017C98.6412 14.8003 96.8444 13.1644 93.9748 13.1644C91.132 13.1644 89.3352 14.8003 89.3352 17.4017Z" fill="white"/>
<path d="M79.5362 10.4018H83.5054V24.3475H79.5362V15.9264H79.4826L71.4638 24.3475H67.4946V10.4018H71.4638V18.8228H71.4906L79.5362 10.4018Z" fill="white"/>
<path d="M63.3687 5.19896V20.9147H65.7019V27.0294H61.4914V24.3475H45.1856V27.0294H40.9751V20.9147H43.0401C44.9711 20.9147 46.0706 19.8151 46.2852 17.6965L47.3579 5.19896H63.3687ZM49.5839 20.9147H59.1582V8.63175H51.2466L50.4689 17.6428C50.3616 18.9301 50.0666 20.0297 49.5839 20.9147Z" fill="white"/>
</svg>
